<svg xmlns="http://www.w3.org/2000/svg" viewBox="0 0 800 600">
  <defs>
    <linearGradient id="sky" x1="0" y1="0" x2="0" y2="1">
      <stop offset="0%" stop-color="#1e2a4a"/>
      <stop offset="100%" stop-color="#4a5d8f"/>
    </linearGradient>
    <linearGradient id="snow" x1="0" y1="0" x2="0" y2="1">
      <stop offset="0%" stop-color="#f8fbff"/>
      <stop offset="100%" stop-color="#c9d6ea"/>
    </linearGradient>
  </defs>
  <rect width="800" height="600" fill="url(#sky)"/>
  <circle cx="640" cy="110" r="46" fill="#fdf6e3" opacity="0.9"/>
  <circle cx="640" cy="110" r="60" fill="#fdf6e3" opacity="0.25"/>
  <path d="M0 330 L150 200 L260 300 L380 160 L520 310 L640 230 L800 320 L800 600 L0 600 Z" fill="url(#snow)"/>
  <path d="M0 400 L170 320 L300 400 L430 300 L580 420 L700 340 L800 400 L800 600 L0 600 Z" fill="#e8eff8"/>
  <path d="M90 120 q20 -50 40 0 q20 50 40 0 q20 -50 40 0 q20 50 40 0 q20 -50 40 0" stroke="#ffffff" stroke-width="5" fill="none" opacity="0.5" stroke-linecap="round"/>
  <g stroke="#ffffff" stroke-width="4" opacity="0.35" stroke-linecap="round">
    <line x1="430" y1="60" x2="420" y2="105"/>
    <line x1="445" y1="62" x2="455" y2="107"/>
    <line x1="180" y1="420" x2="170" y2="465"/>
    <line x1="195" y1="422" x2="205" y2="467"/>
    <line x1="620" y1="430" x2="610" y2="475"/>
    <line x1="635" y1="432" x2="645" y2="477"/>
  </g>
  <g>
    <rect x="330" y="330" width="140" height="220" rx="14" fill="#b23a48"/>
    <path d="M330 350 L400 310 L470 350 Z" fill="#d94f5c"/>
    <rect x="382" y="380" width="36" height="50" rx="4" fill="#5c2a33"/>
    <rect x="352" y="460" width="96" height="12" rx="6" fill="#7c2630"/>
    <rect x="352" y="484" width="96" height="12" rx="6" fill="#7c2630"/>
    <rect x="352" y="508" width="96" height="12" rx="6" fill="#7c2630"/>
  </g>
  <g stroke="#5c2a33" stroke-width="4" stroke-linecap="round" fill="none">
    <path d="M120 560 h-40 l-6 -26 30 -24 30 24 Z" fill="#b23a48" stroke="none"/>
    <path d="M220 560 h-40 l-6 -26 30 -24 30 24 Z" fill="#b23a48" stroke="none"/>
  </g>
  <text x="60" y="72" font-family="Inter, system-ui, sans-serif" font-size="30" font-weight="700" fill="#ffffff">Furtună la 4.500 m</text>
  <text x="60" y="104" font-family="Inter, system-ui, sans-serif" font-size="16" fill="#c3d2f0">Ierarhizați 12 obiecte pentru supraviețuirea echipei</text>
</svg>
